<svg width="64" height="64" viewBox="0 0 64 64" fill="none" xmlns="http://www.w3.org/2000/svg" role="img" aria-label="egglee">
  <defs>
    <linearGradient id="bg" x1="0" y1="0" x2="64" y2="64" gradientUnits="userSpaceOnUse">
      <stop stop-color="#2a2363"/>
      <stop offset="1" stop-color="#1c1745"/>
    </linearGradient>
    <linearGradient id="yolk" x1="22" y1="20" x2="44" y2="48" gradientUnits="userSpaceOnUse">
      <stop stop-color="#ffd36b"/>
      <stop offset="1" stop-color="#f6a833"/>
    </linearGradient>
  </defs>
  <rect width="64" height="64" rx="16" fill="url(#bg)"/>
  <!-- estrelas -->
  <circle cx="15" cy="16" r="1.4" fill="#fdf6ec" opacity="0.9"/>
  <circle cx="49" cy="14" r="1.1" fill="#fdf6ec" opacity="0.7"/>
  <circle cx="46" cy="44" r="1.2" fill="#fdf6ec" opacity="0.6"/>
  <!-- ovo -->
  <path d="M32 13c7 0 13 9 13 18 0 8-5.8 14-13 14s-13-6-13-14c0-9 6-18 13-18Z" fill="#fdf6ec"/>
  <!-- gema em formato de lua crescente (sonho) -->
  <path d="M36.5 27a8.5 8.5 0 1 0 0 15 10.5 10.5 0 0 1 0-15Z" fill="url(#yolk)"/>
</svg>
